<svg width="149" height="31" viewBox="0 0 149 31" fill="none" xmlns="http://www.w3.org/2000/svg">
<path d="M81.4949 23.2645C80.1068 23.6916 78.6831 23.9051 77.2238 23.9051C71.885 23.9051 69.2155 21.2535 69.2155 15.9502C69.2155 10.9317 71.885 8.42249 77.2238 8.42249C78.6831 8.42249 80.1068 8.63604 81.4949 9.06315V10.0241C80.1068 9.59703 78.7543 9.38348 77.4374 9.38348C72.7036 9.38348 70.3367 11.5724 70.3367 15.9502C70.3367 20.6128 72.7036 22.9441 77.4374 22.9441C78.7543 22.9441 80.1068 22.7306 81.4949 22.3035V23.2645ZM81.5914 23.7983V8.52926H87.8912C90.6532 8.52926 92.0342 9.75008 92.0342 12.1917C92.0342 14.3059 90.5357 15.8043 87.5389 16.687L92.6962 23.7983H91.1586L86.0867 16.719V15.9609C89.2188 15.4982 90.7849 14.2703 90.7849 12.2771C90.7849 10.4406 89.7598 9.52229 87.7097 9.52229H82.7126V23.7983H81.5914ZM101.645 8.52926V9.49025H92.7393V15.5765H101.281V16.5375H92.7393V22.8373H101.794V23.7983H91.6182V8.52926H101.645ZM101.634 23.7983H100.438L107.347 8.52926H108.682L115.622 23.7983H114.287L112.024 18.6731H105.179L105.51 17.7121H111.607L107.945 9.40483L101.634 23.7983ZM124.41 8.52926V9.49025H119.178V23.7983H118.057V9.49025H112.932V8.52926H124.41ZM123.759 16.1211C123.759 20.6698 125.905 22.9441 130.198 22.9441C134.412 22.9441 136.519 20.6698 136.519 16.1211C136.519 11.6293 134.412 9.38348 130.198 9.38348C125.905 9.38348 123.759 11.6293 123.759 16.1211ZM122.531 16.1852C122.531 11.01 125.087 8.42249 130.198 8.42249C135.231 8.42249 137.747 11.01 137.747 16.1852C137.747 21.3318 135.231 23.9051 130.198 23.9051C125.087 23.9051 122.531 21.3318 122.531 16.1852ZM137.47 23.7983V8.52926H143.77C146.532 8.52926 147.913 9.75008 147.913 12.1917C147.913 14.3059 146.414 15.8043 143.417 16.687L148.575 23.7983H147.037L141.965 16.719V15.9609C145.097 15.4982 146.663 14.2703 146.663 12.2771C146.663 10.4406 145.638 9.52229 143.588 9.52229H138.591V23.7983H137.47Z" fill="#1E1E1E"/>
<path d="M5.96903 5.91365V21.9302H13.5502V25H2.43205V5.91365H5.96903ZM16.9003 17.4989V5.91365H20.4373V17.4989C20.4373 20.5421 21.9944 22.0636 25.1088 22.0636C28.2231 22.0636 29.7803 20.5421 29.7803 17.4989V5.91365H33.3172V17.4989C33.3172 22.5886 30.5811 25.1335 25.1088 25.1335C19.6365 25.1335 16.9003 22.5886 16.9003 17.4989ZM40.8583 5.91365V25H37.3214V5.91365H40.8583ZM54.2855 5.91365L46.1438 14.8162L55.1397 25H50.2414L42.8604 16.0841V13.7884L49.9611 5.91365H54.2855ZM56.1541 24.1992V20.9959C58.0672 21.7077 60.2294 22.0636 62.6408 22.0636C65.5683 22.0636 67.032 21.0849 67.032 19.1273C67.032 17.7036 66.1333 16.9917 64.3359 16.9917H61.3461C57.4399 16.9917 55.4868 15.2121 55.4868 11.6529C55.4868 7.73776 58.2674 5.78018 63.8287 5.78018C65.9642 5.78018 67.9885 6.09161 69.9016 6.71448V9.91778C67.9885 9.20594 65.9642 8.85001 63.8287 8.85001C60.6254 8.85001 59.0237 9.78431 59.0237 11.6529C59.0237 13.0766 59.7979 13.7884 61.3461 13.7884H64.3359C68.4913 13.7884 70.569 15.5681 70.569 19.1273C70.569 23.1314 67.9263 25.1335 62.6408 25.1335C60.2294 25.1335 58.0672 24.822 56.1541 24.1992Z" fill="#350000"/>
</svg>
