<svg width="30" height="30" viewBox="0 0 30 30" fill="none" xmlns="http://www.w3.org/2000/svg">
<path d="M8.61793 0H21.0991C25.8538 0 29.717 3.86321 29.717 8.61793V21.0991C29.717 23.3847 28.809 25.5767 27.1929 27.1929C25.5767 28.809 23.3847 29.717 21.0991 29.717H8.61793C3.86321 29.717 0 25.8538 0 21.0991V8.61793C0 6.33231 0.907958 4.14031 2.52413 2.52413C4.14031 0.907958 6.33231 0 8.61793 0ZM8.32076 2.9717C6.9021 2.9717 5.54155 3.53526 4.5384 4.5384C3.53526 5.54155 2.9717 6.9021 2.9717 8.32076V21.3962C2.9717 24.3531 5.36392 26.7453 8.32076 26.7453H21.3962C22.8149 26.7453 24.1754 26.1817 25.1786 25.1786C26.1817 24.1754 26.7453 22.8149 26.7453 21.3962V8.32076C26.7453 5.36392 24.3531 2.9717 21.3962 2.9717H8.32076ZM22.6592 5.20047C23.1518 5.20047 23.6242 5.39615 23.9725 5.74447C24.3208 6.09278 24.5165 6.5652 24.5165 7.05779C24.5165 7.55038 24.3208 8.02279 23.9725 8.3711C23.6242 8.71942 23.1518 8.9151 22.6592 8.9151C22.1666 8.9151 21.6942 8.71942 21.3459 8.3711C20.9976 8.02279 20.8019 7.55038 20.8019 7.05779C20.8019 6.5652 20.9976 6.09278 21.3459 5.74447C21.6942 5.39615 22.1666 5.20047 22.6592 5.20047ZM14.8585 7.42925C16.8289 7.42925 18.7185 8.21197 20.1118 9.60522C21.505 10.9985 22.2877 12.8881 22.2877 14.8585C22.2877 16.8289 21.505 18.7185 20.1118 20.1118C18.7185 21.505 16.8289 22.2877 14.8585 22.2877C12.8881 22.2877 10.9985 21.505 9.60522 20.1118C8.21197 18.7185 7.42925 16.8289 7.42925 14.8585C7.42925 12.8881 8.21197 10.9985 9.60522 9.60522C10.9985 8.21197 12.8881 7.42925 14.8585 7.42925ZM14.8585 10.4009C13.6763 10.4009 12.5425 10.8706 11.7065 11.7065C10.8706 12.5425 10.4009 13.6763 10.4009 14.8585C10.4009 16.0407 10.8706 17.1745 11.7065 18.0105C12.5425 18.8464 13.6763 19.316 14.8585 19.316C16.0407 19.316 17.1745 18.8464 18.0105 18.0105C18.8464 17.1745 19.316 16.0407 19.316 14.8585C19.316 13.6763 18.8464 12.5425 18.0105 11.7065C17.1745 10.8706 16.0407 10.4009 14.8585 10.4009Z" fill="#0046C2"/>
</svg>
