<svg width="19" height="18" viewBox="0 0 19 18" fill="none" xmlns="http://www.w3.org/2000/svg">
<path d="M9.16008 16.88C7.62584 16.88 6.12606 16.425 4.85039 15.5726C3.57471 14.7203 2.58045 13.5087 1.99332 12.0913C1.40619 10.6738 1.25257 9.11412 1.55189 7.60936C1.8512 6.10461 2.59001 4.7224 3.67488 3.63753C4.75975 2.55266 6.14196 1.81385 7.64672 1.51454C9.15148 1.21522 10.7112 1.36884 12.1286 1.95597C13.5461 2.54309 14.7576 3.53736 15.61 4.81303C16.4624 6.0887 16.9173 7.58849 16.9173 9.12273C16.9173 11.1801 16.1 13.1532 14.6453 14.6079C13.1905 16.0627 11.2174 16.88 9.16008 16.88ZM9.16008 2.47366C7.84502 2.47366 6.55949 2.86362 5.46606 3.59423C4.37262 4.32484 3.5204 5.36328 3.01714 6.57824C2.51389 7.7932 2.38222 9.1301 2.63877 10.4199C2.89533 11.7097 3.52859 12.8944 4.45848 13.8243C5.38837 14.7542 6.57312 15.3875 7.86291 15.644C9.15271 15.9006 10.4896 15.7689 11.7046 15.2657C12.9195 14.7624 13.958 13.9102 14.6886 12.8168C15.4192 11.7233 15.8091 10.4378 15.8091 9.12273C15.8091 7.35929 15.1086 5.66807 13.8617 4.42113C12.6147 3.17418 10.9235 2.47366 9.16008 2.47366Z" fill="#D9D9D9"/>
<path d="M11.7033 12.4471L8.60596 9.34972V4.13574H9.71413V8.88982L12.4846 11.6658L11.7033 12.4471Z" fill="#D9D9D9"/>
</svg>
