<svg width="17" height="18" viewBox="0 0 17 18" fill="none" xmlns="http://www.w3.org/2000/svg">
<path d="M16.6921 15.5898L13.5192 12.4263C14.5429 11.1221 15.0983 9.51154 15.0963 7.85356C15.0963 6.377 14.6584 4.9336 13.8381 3.70589C13.0178 2.47817 11.8518 1.52128 10.4876 0.956229C9.12347 0.391174 7.62238 0.24333 6.17419 0.531393C4.726 0.819455 3.39576 1.53049 2.35167 2.57457C1.30759 3.61866 0.596555 4.9489 0.308492 6.39709C0.0204297 7.84528 0.168274 9.34637 0.733329 10.7105C1.29838 12.0747 2.25527 13.2407 3.48299 14.061C4.7107 14.8813 6.1541 15.3192 7.63066 15.3192C9.28864 15.3212 10.8992 14.7658 12.2034 13.7421L15.3669 16.915C15.4537 17.0024 15.5569 17.0718 15.6706 17.1192C15.7843 17.1666 15.9063 17.191 16.0295 17.191C16.1527 17.191 16.2747 17.1666 16.3884 17.1192C16.5021 17.0718 16.6053 17.0024 16.6921 16.915C16.7795 16.8282 16.8489 16.725 16.8963 16.6113C16.9437 16.4976 16.9681 16.3756 16.9681 16.2524C16.9681 16.1292 16.9437 16.0072 16.8963 15.8935C16.8489 15.7798 16.7795 15.6766 16.6921 15.5898ZM2.03145 7.85356C2.03145 6.74614 2.35984 5.66359 2.97508 4.74281C3.59033 3.82202 4.46481 3.10435 5.48793 2.68056C6.51106 2.25677 7.63687 2.14589 8.72301 2.36193C9.80915 2.57798 10.8068 3.11126 11.5899 3.89432C12.373 4.67738 12.9062 5.67507 13.1223 6.76121C13.3383 7.84735 13.2275 8.97317 12.8037 9.99629C12.3799 11.0194 11.6622 11.8939 10.7414 12.5091C9.82063 13.1244 8.73808 13.4528 7.63066 13.4528C6.14566 13.4528 4.72148 12.8629 3.67142 11.8128C2.62136 10.7627 2.03145 9.33857 2.03145 7.85356Z" fill="#D9D9D9"/>
<path d="M9.49707 6.92036H8.56386V5.98716C8.56386 5.73966 8.46554 5.50229 8.29054 5.32728C8.11553 5.15227 7.87816 5.05396 7.63066 5.05396C7.38316 5.05396 7.1458 5.15227 6.97079 5.32728C6.79578 5.50229 6.69746 5.73966 6.69746 5.98716V6.92036H5.76426C5.51676 6.92036 5.27939 7.01868 5.10438 7.19369C4.92937 7.3687 4.83105 7.60606 4.83105 7.85356C4.83105 8.10106 4.92937 8.33843 5.10438 8.51344C5.27939 8.68844 5.51676 8.78676 5.76426 8.78676H6.69746V9.71997C6.69746 9.96747 6.79578 10.2048 6.97079 10.3798C7.1458 10.5548 7.38316 10.6532 7.63066 10.6532C7.87816 10.6532 8.11553 10.5548 8.29054 10.3798C8.46554 10.2048 8.56386 9.96747 8.56386 9.71997V8.78676H9.49707C9.74457 8.78676 9.98193 8.68844 10.1569 8.51344C10.3319 8.33843 10.4303 8.10106 10.4303 7.85356C10.4303 7.60606 10.3319 7.3687 10.1569 7.19369C9.98193 7.01868 9.74457 6.92036 9.49707 6.92036Z" fill="#D9D9D9"/>
</svg>
